<?xml version="1.0" encoding="utf-8"?>
<!-- Generator: Adobe Illustrator 24.0.0, SVG Export Plug-In . SVG Version: 6.00 Build 0)  -->
<svg version="1.1" id="Layer_1" xmlns="http://www.w3.org/2000/svg" xmlns:xlink="http://www.w3.org/1999/xlink" x="0px" y="0px"
	 viewBox="0 0 4.7 4.8" style="enable-background:new 0 0 4.7 4.8;" xml:space="preserve">
<style type="text/css">
	.st0{fill:#FFFFFF;}
</style>
<g>
	<path class="st0" d="M0.7,0.7C1.1,0.3,1.7,0,2.3,0C3,0,3.5,0.3,4,0.7c0.5,0.5,0.7,1,0.7,1.6C4.7,3,4.4,3.5,4,4
		C3.5,4.5,3,4.7,2.3,4.7C1.7,4.7,1.1,4.5,0.7,4C0.2,3.5,0,3,0,2.4C0,1.7,0.2,1.2,0.7,0.7z M1,3.7C1.4,4,1.8,4.2,2.3,4.2
		S3.3,4,3.6,3.7C4,3.3,4.2,2.9,4.2,2.4S4,1.4,3.6,1C3.3,0.7,2.8,0.5,2.3,0.5S1.4,0.7,1,1C0.6,1.4,0.5,1.9,0.5,2.4S0.6,3.3,1,3.7z
		 M2.1,1.2h0.5v1.4H2.1V1.2z M2.1,3.1h0.5v0.5H2.1V3.1z"/>
</g>
</svg>
